<svg width="265" height="57" viewBox="0 0 265 57" fill="none" xmlns="http://www.w3.org/2000/svg">
<g clip-path="url(#clip0_585_366)">
<path fill-rule="evenodd" clip-rule="evenodd" d="M13.5324 40.6824C13.5324 41.4659 14.4205 42.3223 15.1929 42.3223H35.6589C38.8042 42.3223 41.3776 44.9325 41.3776 48.1229V49.5506C41.3776 52.7408 38.8042 55.3512 35.6589 55.3512H7.81377H6.40617C6.35713 55.3512 6.30809 55.3505 6.25921 55.3492C6.21034 55.348 6.16163 55.346 6.11308 55.3435C6.06454 55.341 6.01616 55.3379 5.96795 55.3342C5.91974 55.3304 5.87153 55.3261 5.82365 55.3211C5.77577 55.3161 5.72806 55.3104 5.68051 55.3043C5.63297 55.2981 5.58559 55.2915 5.53837 55.284C5.49116 55.2766 5.44411 55.2687 5.39723 55.2602C5.35052 55.2515 5.3038 55.2425 5.25742 55.2327C5.21104 55.2231 5.16482 55.2127 5.11877 55.2019C5.07272 55.1911 5.027 55.1796 4.98145 55.1677C4.93573 55.1557 4.89052 55.1432 4.8453 55.1301C4.80008 55.1171 4.75519 55.1034 4.71047 55.0893C4.66575 55.075 4.62136 55.0603 4.57714 55.045C4.53292 55.0297 4.48887 55.0139 4.44514 54.9976C4.40142 54.9813 4.35803 54.9645 4.31464 54.947C4.27142 54.9297 4.22853 54.9118 4.1858 54.8935C4.14291 54.875 4.10052 54.856 4.05846 54.8367C4.01623 54.8173 3.97417 54.7973 3.93261 54.7768C3.89088 54.7564 3.84965 54.7356 3.80859 54.7141H3.80842C3.76736 54.6926 3.72663 54.6707 3.68623 54.6484C3.64567 54.6259 3.60544 54.6031 3.56554 54.5798C3.52564 54.5564 3.48607 54.5326 3.44667 54.5083C3.40727 54.484 3.36837 54.4594 3.32964 54.4341C3.29107 54.4088 3.25267 54.3832 3.2146 54.357C3.17653 54.3309 3.13879 54.3043 3.10138 54.2774C3.06414 54.2502 3.02691 54.2228 2.99033 54.1948C2.95359 54.167 2.91718 54.1386 2.88111 54.1098C2.84503 54.081 2.80946 54.0519 2.77405 54.0223C2.7388 53.9927 2.70372 53.9627 2.66914 53.9321H2.66898C2.6344 53.9017 2.60015 53.8709 2.56624 53.8396C2.53249 53.8083 2.49891 53.7767 2.46583 53.7446H2.46566C2.43258 53.7125 2.39983 53.68 2.36741 53.6473C2.33499 53.6145 2.30307 53.5812 2.27149 53.5476L2.27132 53.5474C2.23973 53.5138 2.20865 53.4799 2.17772 53.4454C2.14697 53.4112 2.11655 53.3764 2.08645 53.3413C2.05636 53.3062 2.02694 53.2706 1.99768 53.2348C1.96842 53.199 1.93966 53.1628 1.9114 53.1261C1.88297 53.0895 1.85504 53.0526 1.82744 53.0155C1.80001 52.9782 1.77292 52.9406 1.74632 52.9027C1.71972 52.8648 1.69345 52.8265 1.66768 52.7879C1.64191 52.7493 1.61665 52.7104 1.59171 52.6711C1.56694 52.632 1.5425 52.5924 1.51856 52.5525C1.49462 52.5127 1.47101 52.4724 1.44807 52.432C1.42496 52.3916 1.40252 52.3506 1.38041 52.3095C1.3583 52.2685 1.33669 52.2272 1.31558 52.1854C1.29446 52.1438 1.27385 52.1017 1.25373 52.0596C1.23362 52.0174 1.214 51.9748 1.19471 51.932C1.1756 51.8893 1.15698 51.8462 1.13886 51.8027C1.12074 51.7595 1.10295 51.7159 1.08582 51.672C1.06887 51.6282 1.05208 51.5841 1.03612 51.5397H1.03595C1.01999 51.4953 1.00436 51.4507 0.989402 51.4059C0.974273 51.361 0.95981 51.3159 0.945845 51.2705C0.931881 51.2252 0.918415 51.1796 0.905448 51.1339C0.892647 51.088 0.880178 51.042 0.868375 50.9958C0.856572 50.9495 0.845433 50.9031 0.834627 50.8564C0.823987 50.8098 0.813846 50.7629 0.804371 50.7158C0.794728 50.6687 0.785751 50.6214 0.777273 50.574V50.5738C0.76896 50.5264 0.76098 50.4787 0.753832 50.4309C0.746517 50.383 0.739867 50.3349 0.733716 50.2867C0.727731 50.2384 0.722079 50.19 0.717258 50.1414C0.712437 50.0928 0.707948 50.0441 0.704291 49.9952C0.700633 49.9463 0.697475 49.897 0.694981 49.8479V49.8478C0.692487 49.7987 0.690659 49.7493 0.689495 49.6997C0.688165 49.6501 0.6875 49.6005 0.6875 49.5506V49.5504V48.1229V8.67915V7.25142V7.20683C0.6875 4.01645 3.26098 1.40625 6.40617 1.40625H7.81377C8.05317 1.40625 8.28907 1.42156 8.52098 1.45084H55.454C58.5992 1.45084 61.1726 4.06121 61.1726 7.25142V8.67915C61.1726 11.8695 58.5992 14.4797 55.454 14.4797H16.1937C14.9239 14.4797 13.5324 15.9068 13.5324 17.1791V40.6824Z" fill="black"/>
<path fill-rule="evenodd" clip-rule="evenodd" d="M49.0767 49.5527V37.8291C49.0767 36.4644 47.5847 34.9176 46.2394 34.9176H32.7568C29.6114 34.9176 27.0381 32.3074 27.0381 29.117V27.6893C27.0381 24.499 29.6114 21.8887 32.7568 21.8887H56.2467C59.3923 21.8887 61.9654 24.499 61.9654 27.6893V29.117C61.9654 29.3597 61.9503 29.5988 61.9215 29.8339V49.5527C61.9215 52.7429 59.348 55.3533 56.2028 55.3533H54.7952C51.65 55.3533 49.0767 52.7429 49.0767 49.5527Z" fill="black"/>
<path d="M89.0674 54.7628C90.4314 55.2493 93.753 56.3434 98.8536 56.3434C101.641 56.3434 106.208 56.0396 109.767 53.1214C114.512 49.2308 114.571 44.1242 114.571 39.6255V30.5673C114.571 26.0687 114.334 21.3268 110.716 17.2536C108.937 15.2475 105.556 12.6942 99.9806 12.6942C89.8384 12.6942 84.7969 21.0228 84.7969 28.0748C84.7969 33.911 87.7032 38.6528 92.2109 41.2061C94.2867 42.3612 96.6592 42.9691 98.9723 42.9691C100.633 42.9691 102.59 42.5435 104.607 40.9629V33.1814C103.005 35.1876 100.87 35.4307 99.5654 35.4307C98.3791 35.4307 97.193 35.1876 96.1253 34.6404C93.9902 33.5462 92.3888 31.1753 92.3888 27.9531C92.3888 23.0898 96.0068 20.2325 99.8027 20.2325C102.234 20.2325 103.954 21.2052 105.2 22.7858C106.979 25.096 106.979 27.6493 106.979 30.081V39.3823C106.979 42.1179 107.039 44.7928 104.666 46.9205C102.65 48.6837 99.8027 48.8052 98.2012 48.8052C96.3626 48.8052 93.753 48.5621 89.0674 47.2245V54.7628ZM127.62 42.9691V0.414062H120.028V42.9691H127.62ZM132.246 28.1964C132.246 36.829 138.948 43.6986 147.37 43.6986C155.792 43.6986 162.494 36.829 162.494 28.1964C162.494 19.5638 155.792 12.6942 147.37 12.6942C138.948 12.6942 132.246 19.5638 132.246 28.1964ZM139.838 28.1964C139.838 23.6978 143.159 20.2325 147.37 20.2325C151.581 20.2325 154.903 23.6978 154.903 28.1964C154.903 32.695 151.581 36.1603 147.37 36.1603C143.159 36.1603 139.838 32.695 139.838 28.1964ZM174.713 13.4238V5.52066H167.121V31.4793C167.121 34.5796 166.943 38.7743 170.502 41.3885C172.933 43.1515 175.958 42.9691 178.212 42.9691H180.229V35.4307H178.212C174.772 35.4307 174.713 33.2423 174.713 31.4793V20.9621H180.229V13.4238H174.713ZM191.676 42.9691V29.9594C191.676 26.6767 192.15 21.2661 198.734 21.2661H199.801V13.0589H198.852C197.132 13.0589 192.447 13.3022 190.904 19.0168V13.4238H184.084V42.9691H191.676ZM202.767 33.1206C199.505 33.1206 197.844 35.7956 197.844 38.1665C197.844 40.5373 199.505 43.2122 202.767 43.2122C206.029 43.2122 207.69 40.5373 207.69 38.1665C207.69 35.7956 206.029 33.1206 202.767 33.1206Z" fill="black"/>
<path d="M236.222 13.4238H228.63V30.4457C228.63 32.3303 228.512 34.2757 226.436 35.5523C225.783 35.9779 225.071 36.1603 224.3 36.1603C223.529 36.1603 222.818 35.9779 222.165 35.5523C220.089 34.2757 219.971 32.3303 219.971 30.4457V13.4238H212.379V29.4731C212.379 34.1541 212.616 38.9567 218.132 42.1179C220.03 43.2122 222.165 43.6986 224.3 43.6986C226.436 43.6986 228.571 43.2122 230.469 42.1179C235.985 38.9567 236.222 34.1541 236.222 29.5338V13.4238ZM242.153 20.9621H254.015L243.517 32.5734C241.678 34.6404 240.255 35.8563 240.255 38.3489C240.255 42.8475 244.17 42.9691 246.305 42.9691H264.217V35.4307H251.465L261.311 24.3057C262.497 22.9682 264.276 20.9621 264.276 18.0441C264.276 13.4846 260.124 13.4238 258.167 13.4238H242.153V20.9621Z" fill="black"/>
</g>
<defs>
<clipPath id="clip0_585_366">
<rect width="263.583" height="55.9296" fill="white" transform="translate(0.69043 0.416016)"/>
</clipPath>
</defs>
</svg>
