<svg width="57" height="57" viewBox="0 0 57 57" fill="none" xmlns="http://www.w3.org/2000/svg">
<path d="M7.125 26.125C7.125 17.1689 7.125 12.6896 9.9085 9.9085C12.6896 7.125 17.1689 7.125 26.125 7.125H30.875C39.8311 7.125 44.3104 7.125 47.0915 9.9085C49.875 12.6896 49.875 17.1689 49.875 26.125V30.875C49.875 39.8311 49.875 44.3104 47.0915 47.0915C44.3104 49.875 39.8311 49.875 30.875 49.875H26.125C17.1689 49.875 12.6896 49.875 9.9085 47.0915C7.125 44.3104 7.125 39.8311 7.125 30.875V26.125Z" stroke="white" stroke-width="2"/>
<path d="M39.1875 21.375C41.155 21.375 42.75 19.78 42.75 17.8125C42.75 15.845 41.155 14.25 39.1875 14.25C37.22 14.25 35.625 15.845 35.625 17.8125C35.625 19.78 37.22 21.375 39.1875 21.375Z" fill="white"/>
<path d="M28.5 35.625C32.435 35.625 35.625 32.435 35.625 28.5C35.625 24.565 32.435 21.375 28.5 21.375C24.565 21.375 21.375 24.565 21.375 28.5C21.375 32.435 24.565 35.625 28.5 35.625Z" stroke="white" stroke-width="2"/>
</svg>
