<svg width="16" height="15" viewBox="0 0 16 15" fill="none" xmlns="http://www.w3.org/2000/svg">
<path d="M12.8032 11.5527C12.6087 10.966 12.0475 10.5333 11.3815 10.5333H10.6332V8.33333C10.6332 8.13884 10.5543 7.95231 10.414 7.81479C10.2737 7.67726 10.0833 7.6 9.88487 7.6H5.39507V6.13333H6.89167C7.09013 6.13333 7.28046 6.05607 7.4208 5.91854C7.56113 5.78101 7.63997 5.59449 7.63997 5.4V3.93333H9.13657C9.53349 3.93333 9.91415 3.77881 10.1948 3.50375C10.4755 3.2287 10.6332 2.85565 10.6332 2.46666V2.166C11.5285 2.51973 12.323 3.08081 12.9487 3.80121C13.5744 4.52161 14.0127 5.37986 14.226 6.30252C14.4393 7.22517 14.4213 8.18474 14.1735 9.09908C13.9257 10.0134 13.4556 10.8553 12.8032 11.5527ZM7.63997 13.4153C4.68419 13.056 2.40187 10.592 2.40187 7.6C2.40187 7.14533 2.46174 6.70533 2.55902 6.28733L6.14337 9.8V10.5333C6.14337 10.9223 6.30105 11.2954 6.58171 11.5704C6.86238 11.8455 7.24305 12 7.63997 12M8.38827 0.266663C7.40559 0.266663 6.43253 0.456345 5.52465 0.824879C4.61677 1.19341 3.79185 1.73358 3.09699 2.41455C1.69366 3.78981 0.905273 5.65508 0.905273 7.6C0.905273 9.54492 1.69366 11.4102 3.09699 12.7854C3.79185 13.4664 4.61677 14.0066 5.52465 14.3751C6.43253 14.7436 7.40559 14.9333 8.38827 14.9333C10.3729 14.9333 12.2762 14.1607 13.6795 12.7854C15.0829 11.4102 15.8713 9.54492 15.8713 7.6C15.8713 6.63697 15.6777 5.68337 15.3017 4.79365C14.9256 3.90393 14.3744 3.09551 13.6795 2.41455C12.9847 1.73358 12.1598 1.19341 11.2519 0.824879C10.344 0.456345 9.37095 0.266663 8.38827 0.266663Z" fill="#191359"/>
</svg>
