<svg width="269" height="86" viewBox="0 0 269 86" fill="none" xmlns="http://www.w3.org/2000/svg">
<path d="M64.8892 28.7062L62.2729 31.0527L61.5349 29.0414C60.8641 27.0302 60.6628 26.9631 57.6439 27.1642L54.4238 27.3654V43.1202V58.875H58.7844H63.145L63.3462 48.4165C63.4804 38.3602 63.6146 37.8239 65.1575 36.1478C67.1701 34.0025 70.1219 33.8684 73.2078 35.7456L75.4217 37.1535L76.7634 35.2763C79.9164 30.7175 79.9164 30.5834 76.428 28.371C71.8661 25.4882 68.3777 25.5552 64.8892 28.7062Z" fill="black"/>
<path d="M92.6576 27.5672C86.2844 30.5841 82.9972 35.277 82.4605 42.1153C81.6555 51.7023 88.7666 59.2109 98.6953 59.2109C103.727 59.2109 107.215 57.8031 110.502 54.3169C113.924 50.7637 114.729 48.6183 114.796 43.1209C114.796 37.7576 113.857 34.9418 110.972 31.5897C106.88 27.0309 98.0244 25.0196 92.6576 27.5672ZM103.727 36.4838C109.094 42.1823 106.008 51.1659 98.6282 51.1659C94.4689 51.1659 91.6513 48.6183 91.1817 44.2606C90.5108 38.361 93.5297 34.4055 98.7624 34.4055C101.177 34.4055 102.05 34.8077 103.727 36.4838Z" fill="black"/>
<path d="M134.118 27.3674C132.978 27.8367 131.367 28.9094 130.562 29.7139C129.757 30.5184 129.019 31.0547 128.952 30.9206C128.885 30.7866 128.483 29.848 128.013 28.8423C127.275 27.1663 126.94 26.9652 124.323 27.1663L121.506 27.3674V43.1222V58.877H125.866H130.227L130.562 48.4185C130.831 39.3009 131.099 37.6919 132.172 36.4851C133.984 34.5409 137.942 34.6079 139.82 36.6192C141.162 38.0271 141.296 38.9656 141.43 48.4856L141.632 58.877H145.657H149.682L150.017 48.4185C150.42 36.284 150.889 35.0772 155.518 35.0772C157.732 35.0772 158.269 35.4124 159.409 37.2226C160.617 39.1668 160.751 40.6417 160.751 49.3571V59.2793L164.977 59.0782L169.137 58.877L169.338 48.4856C169.606 34.4738 168.399 30.5854 162.764 27.7026C158.537 25.5573 153.975 26.1607 149.481 29.5128C147.535 30.9877 147.133 31.0547 146.462 30.1832C143.845 26.8311 138.277 25.5573 134.118 27.3674Z" fill="black"/>
<path d="M14.9084 28.1034C14.7071 28.7068 14.5059 37.9585 14.5059 48.8193C14.5059 64.9093 14.7071 68.5966 15.4451 69.2C15.9817 69.6693 17.9272 69.9375 20.0069 69.8034L23.5624 69.6022L23.7637 62.6299L23.965 55.6576L25.9775 57.6018C27.8559 59.4119 28.3926 59.546 33.1557 59.546C37.9859 59.546 38.5226 59.4119 41.4743 57.2666C45.902 54.1156 48.0487 49.6909 48.0487 43.7241C48.0487 34.9417 43.2857 28.9079 35.1012 27.3659C31.2102 26.6285 28.2584 27.5 25.7092 30.1147L23.4283 32.5282L22.2878 29.7795C21.2815 27.1648 21.0803 27.0307 18.2627 27.0307C16.183 27.0307 15.1767 27.3659 14.9084 28.1034ZM37.1808 36.6177C40.3339 39.8357 40.2668 45.7354 36.9125 49.2216C35.3024 50.8976 34.5645 51.1658 31.6798 51.1658C27.8559 51.0987 26.0446 50.0261 24.3004 46.6069C22.9587 44.0593 22.9587 42.2492 24.1662 39.9028C25.1725 37.9585 27.6547 35.478 29.2647 34.8746C31.3444 34.0031 35.5037 34.9417 37.1808 36.6177Z" fill="black"/>
<path d="M192.283 38.4953C192.283 51.7696 192.954 54.116 197.583 57.334C201.876 60.3509 208.585 59.8146 212.476 56.1273L214.153 54.5183L215.025 56.8647C215.763 58.943 216.099 59.2112 218.312 59.2112C222.606 59.2112 222.539 59.6135 222.338 42.7189L222.136 27.3664H217.776H213.415L213.08 37.6238C212.744 47.8812 212.744 47.9482 210.866 49.5572C208.585 51.5014 205.164 51.7025 202.95 49.8924C201.407 48.6857 201.34 48.1493 201.004 37.959L200.669 27.3664L196.51 27.1652L192.283 26.9641V38.4953Z" fill="black"/>
<path d="M229.182 30.7183V34.4056H236.226C240.117 34.4056 243.27 34.6738 243.27 35.009C243.27 35.3442 242.8 36.0146 242.129 36.4839C241.525 37.0202 238.104 40.9757 234.414 45.2664C228.913 51.8365 227.84 53.4455 227.84 55.3897C227.84 56.6635 228.242 58.0713 228.779 58.4736C229.383 59.0099 233.408 59.211 241.66 59.077L253.668 58.8758V55.1885V51.5012L246.825 51.3001C243.001 51.2331 239.915 50.9649 239.915 50.6967C239.915 50.2945 252.662 34.9419 253.534 34.3386C253.802 34.1374 254.003 32.4614 253.869 30.6513L253.668 27.3662L241.458 27.1651L229.182 27.031V30.7183Z" fill="black"/>
<path d="M176.316 54.9866L176.518 58.875H180.543H184.568L184.769 54.9866L184.971 51.1652H180.543H176.115L176.316 54.9866Z" fill="black"/>
</svg>
