<svg width="101" height="126" viewBox="-18 0 131 126" fill="none" xmlns="http://www.w3.org/2000/svg">
<g clip-path="url(#clip0_774_361)">
<path d="M125.893 81.2947V76.1925V45.5645V14.9362C125.893 12.1337 123.599 9.83398 120.784 9.83398H18.7016C15.8933 9.83398 13.5874 12.1221 13.5874 14.9362V45.5642V76.1921V81.2943L0.833984 96.6087C0.833984 100.827 4.26085 104.26 8.48514 104.26H130.996C135.22 104.26 138.647 100.827 138.647 96.6087L125.893 81.2947ZM79.9517 101.717H59.5413C58.8368 101.717 58.2586 101.151 58.2586 100.44C58.2586 99.7299 58.8368 99.1634 59.5413 99.1634H79.9517C80.6562 99.1634 81.2343 99.7299 81.2343 100.44C81.2227 101.151 80.6562 101.717 79.9517 101.717ZM48.6997 96.6145L52.5947 91.9392H86.8866L90.7816 96.6145H48.6997ZM118.704 72.268C118.704 74.7295 116.699 76.7236 114.255 76.7236H25.226C22.7813 76.7236 20.7762 74.7127 20.7762 72.268V18.8716C20.7762 16.4101 22.7813 14.416 25.226 14.416H114.255C116.699 14.416 118.704 16.4211 118.704 18.8716V72.268Z" fill="#4E4A83"/>
<path d="M95.7099 46.4651L99.6049 40.6172L95.2826 36.2829L89.4285 40.1778C88.8045 39.8602 88.1163 39.6635 87.4581 39.4321L86.0646 32.4688H79.9333L78.541 39.4321C77.8765 39.6693 77.2004 39.8594 76.5706 40.1778L70.7164 36.2829L66.3883 40.6051L70.2833 46.4651C69.9598 47.0953 69.6935 47.7656 69.468 48.4475L62.5742 49.8282V55.9595L69.4738 57.3355C69.6993 58.0232 69.9649 58.676 70.2891 59.3238L66.388 65.1658L70.7223 69.5002L76.5764 65.5932C77.1946 65.9225 77.8827 66.1134 78.5468 66.3389L79.9391 73.3139H86.0705L87.4628 66.3389C88.1214 66.1134 88.7975 65.9225 89.4332 65.5932L95.2812 69.5002L99.6155 65.1658L95.7143 59.3238C96.0436 58.6877 96.3041 58.0232 96.5296 57.3355L103.423 55.9595L103.435 49.8282L96.5296 48.4475C96.2986 47.7656 96.0392 47.1011 95.7099 46.4651ZM83.0024 60.0458C79.0495 60.0458 75.8598 56.8444 75.8598 52.8915C75.8598 48.9503 79.0612 45.7547 83.0024 45.7547C86.9437 45.7547 90.1567 48.9561 90.1567 52.8915C90.1556 56.8386 86.9542 60.0458 83.0024 60.0458Z" fill="#4E4A83"/>
<path d="M60.2813 39.0867C60.3851 38.6014 60.4314 38.1038 60.4605 37.5844L64.8987 35.3942L63.7952 31.2395L58.8606 31.563C58.5834 31.1299 58.2708 30.7193 57.9473 30.3499L59.525 25.6747L55.7914 23.5188L52.538 27.2345C52.0589 27.1366 51.5551 27.1191 51.0582 27.0907L48.8386 22.6172L44.6781 23.7264L45.0016 28.7132C44.6027 28.9962 44.1637 29.256 43.7991 29.5685L39.1121 27.9908L36.9621 31.7244L40.672 34.9837C40.5682 35.4689 40.5219 35.9665 40.4986 36.474L36.0488 38.6641L37.1581 42.8367L42.0927 42.5132C42.37 42.9405 42.6767 43.3452 43.0002 43.7095L41.4283 48.3964L45.1619 50.5465L48.4153 46.8366C48.8896 46.9345 49.4029 46.9462 49.8951 46.9699L52.1147 51.4481L56.2694 50.3447L55.9517 45.3579C56.3448 45.0749 56.7779 44.8209 57.1543 44.5026L61.8354 46.0683L63.9912 42.3409L60.2813 39.0867ZM51.7865 41.8895C49.0995 42.6057 46.3549 41.0174 45.6376 38.3355C44.9214 35.6543 46.505 32.904 49.1858 32.1809C51.8728 31.4705 54.6173 33.0588 55.3405 35.7349C56.0581 38.4106 54.4625 41.1671 51.7865 41.8895Z" fill="#4E4A83"/>
</g>
<defs>
<clipPath id="clip0_774_361">
<rect width="137.813" height="137.813" fill="white" transform="translate(0.830078 -11.8574)"/>
</clipPath>
</defs>
</svg>
