<svg width="46" height="46" viewBox="0 0 46 46" fill="none" xmlns="http://www.w3.org/2000/svg">
<g clip-path="url(#clip0_44_14)">
<path fill-rule="evenodd" clip-rule="evenodd" d="M41.86 11.6072C41.9436 11.0998 41.8896 10.5794 41.7037 10.1C41.5178 9.62068 41.2067 9.19995 40.8029 8.88168C40.3991 8.56342 39.9174 8.35926 39.4078 8.29049C38.8983 8.22171 38.3796 8.29084 37.9059 8.49066L5.13091 22.2907C2.84624 23.2528 2.72932 26.5572 5.13091 27.5538C7.50895 28.5456 9.92165 29.4521 12.3644 30.2717C14.6031 31.0115 17.0449 31.6957 19.0018 31.8893C19.5366 32.5295 20.2093 33.1467 20.8955 33.7102C21.9439 34.5727 23.2051 35.4601 24.5084 36.3111C27.1189 38.0169 30.015 39.648 31.9662 40.7098C34.2987 41.9748 37.0913 40.5182 37.5092 37.9747L41.86 11.6072ZM8.80516 24.9031L37.7928 12.6977L33.7333 37.3077C31.8186 36.267 29.0605 34.7087 26.6033 33.1026C25.4708 32.3755 24.3775 31.5892 23.3277 30.747C23.0472 30.5178 22.7748 30.2787 22.5112 30.0302L30.1032 22.4402C30.4628 22.0808 30.6649 21.5932 30.6651 21.0848C30.6653 20.5764 30.4635 20.0887 30.1041 19.729C29.7447 19.3694 29.2572 19.1672 28.7488 19.1671C28.2403 19.1669 27.7526 19.3687 27.393 19.7281L19.0804 28.0407C17.6736 27.8605 15.7147 27.3392 13.5642 26.63C11.9632 26.0967 10.3769 25.5202 8.80707 24.9012L8.80516 24.9031Z" fill="white"/>
</g>
<defs>
<clipPath id="clip0_44_14">
<rect width="46" height="46" fill="white"/>
</clipPath>
</defs>
</svg>
