<svg width="92" height="139" viewBox="0 0 92 139" fill="none" xmlns="http://www.w3.org/2000/svg">
<path d="M0.491699 99.9937V94.918H25.0396V99.1631C25.0396 106.669 27.0083 112.206 30.9458 115.774C34.8833 119.343 39.7744 121.127 45.6191 121.127C51.833 121.127 56.7856 119.343 60.4771 115.774C64.23 112.206 66.1064 106.331 66.1064 98.1479C66.1064 90.0884 63.9531 84.2129 59.6465 80.5215C55.3398 76.8301 49.772 74.9844 42.9429 74.9844H28.5464V59.8496H42.2969C48.1416 59.8496 52.9712 58.2192 56.7856 54.9585C60.6001 51.6362 62.5073 46.0068 62.5073 38.0703C62.5073 31.3027 60.9692 26.3809 57.8931 23.3047C54.8169 20.167 50.5718 18.5981 45.1577 18.5981C39.313 18.5981 34.8833 20.3516 31.8687 23.8584C28.9155 27.3652 27.439 32.4102 27.439 38.9932V42.2231H3.44482V38.3472C3.3833 26.1655 7.41309 16.8755 15.5342 10.4771C23.7168 4.01709 33.8374 0.787109 45.896 0.787109C58.2622 0.787109 68.229 3.83252 75.7964 9.92334C83.3638 16.0142 87.1475 24.5044 87.1475 35.394C87.1475 43.5767 85.4863 50.1597 82.1641 55.1431C78.9033 60.1265 74.3198 63.8179 68.4136 66.2173V66.5864C74.3813 68.063 79.6416 71.5391 84.1943 77.0146C88.7471 82.4287 91.0234 89.9961 91.0234 99.7168C91.0234 111.283 86.8706 120.696 78.5649 127.956C70.2593 135.216 59.2773 138.846 45.6191 138.846C32.1455 138.846 21.2559 135.4 12.9502 128.51C4.64453 121.619 0.491699 112.114 0.491699 99.9937Z" fill="#9F99E0" fill-opacity="0.76"/>
</svg>
