<svg width="91" height="137" viewBox="0 0 91 137" fill="none" xmlns="http://www.w3.org/2000/svg">
<path d="M0.875977 137V120.942L47.3877 68.8013C51.4482 63.8179 54.9858 58.7422 58.0005 53.5742C61.0151 48.3447 62.5225 43.0845 62.5225 37.7935C62.5225 31.0259 60.8306 26.1655 57.4468 23.2124C54.1245 20.2593 49.9102 18.7827 44.8037 18.7827C39.5127 18.7827 35.083 20.4131 31.5146 23.6738C28.0078 26.9346 26.2544 33.1792 26.2544 42.4077V45.6377H1.06055V39.4546C1.06055 27.7651 5.15186 18.4136 13.3345 11.3999C21.5786 4.32471 32.2222 0.787109 45.2651 0.787109C58.6772 0.787109 69.0747 3.98633 76.4575 10.3848C83.8403 16.7832 87.5317 25.458 87.5317 36.4092C87.5933 44.5303 85.8398 51.9131 82.2715 58.5576C78.7646 65.1406 73.6274 72.2773 66.8599 79.9678L37.6055 116.605H90.6694V137H0.875977Z" fill="#9F99E0" fill-opacity="0.76"/>
</svg>
