<svg width="54" height="32" viewBox="0 0 54 32" fill="none" xmlns="http://www.w3.org/2000/svg">
<path d="M52.4883 30.5103C51.5284 31.4644 50.23 32 48.8766 32C47.5232 32 46.2248 31.4644 45.265 30.5103L26.8737 12.3752L8.73864 30.5103C7.7788 31.4644 6.48039 32 5.127 32C3.7736 32 2.47519 31.4644 1.51535 30.5103C1.03518 30.0341 0.654069 29.4675 0.393986 28.8432C0.133903 28.2189 0 27.5493 0 26.873C0 26.1968 0.133903 25.5272 0.393986 24.9029C0.654069 24.2786 1.03518 23.712 1.51535 23.2358L23.2365 1.51465C23.7127 1.03449 24.2793 0.653377 24.9036 0.393293C25.5279 0.13321 26.1974 -0.000694275 26.8737 -0.000694275C27.55 -0.000694275 28.2196 0.13321 28.8439 0.393293C29.4682 0.653377 30.0348 1.03449 30.511 1.51465L52.4883 23.2358C52.9684 23.712 53.3495 24.2786 53.6096 24.9029C53.8697 25.5272 54.0036 26.1968 54.0036 26.873C54.0036 27.5493 53.8697 28.2189 53.6096 28.8432C53.3495 29.4675 52.9684 30.0341 52.4883 30.5103Z" fill="#948DEA"/>
</svg>
